<mxfile host="app.diagrams.net" agent="Mozilla/5.0 (Windows NT 10.0; Win64; x64) AppleWebKit/537.36 (KHTML, like Gecko) Chrome/126.0.0.0 Safari/537.36 OPR/112.0.0.0" version="24.7.10">
  <diagram name="Page-1" id="RLWDFpM40dF_UxX5UAYp">
    <mxGraphModel dx="863" dy="373" grid="1" gridSize="10" guides="1" tooltips="1" connect="1" arrows="1" fold="1" page="1" pageScale="1" pageWidth="850" pageHeight="1100" math="0" shadow="0">
      <root>
        <mxCell id="0" />
        <mxCell id="1" parent="0" />
        <mxCell id="PxZSOuYJJorGenmfTSrI-3" value="" style="edgeStyle=orthogonalEdgeStyle;rounded=0;orthogonalLoop=1;jettySize=auto;html=1;" edge="1" parent="1" source="PxZSOuYJJorGenmfTSrI-1" target="PxZSOuYJJorGenmfTSrI-2">
          <mxGeometry relative="1" as="geometry" />
        </mxCell>
        <mxCell id="PxZSOuYJJorGenmfTSrI-1" value="Start" style="ellipse;whiteSpace=wrap;html=1;" vertex="1" parent="1">
          <mxGeometry x="105" y="30" width="110" height="50" as="geometry" />
        </mxCell>
        <mxCell id="PxZSOuYJJorGenmfTSrI-5" value="" style="edgeStyle=orthogonalEdgeStyle;rounded=0;orthogonalLoop=1;jettySize=auto;html=1;" edge="1" parent="1" source="PxZSOuYJJorGenmfTSrI-2" target="PxZSOuYJJorGenmfTSrI-4">
          <mxGeometry relative="1" as="geometry" />
        </mxCell>
        <mxCell id="PxZSOuYJJorGenmfTSrI-2" value="Chassis Assembly" style="whiteSpace=wrap;html=1;" vertex="1" parent="1">
          <mxGeometry x="100" y="120" width="120" height="60" as="geometry" />
        </mxCell>
        <mxCell id="PxZSOuYJJorGenmfTSrI-7" value="" style="edgeStyle=orthogonalEdgeStyle;rounded=0;orthogonalLoop=1;jettySize=auto;html=1;" edge="1" parent="1" source="PxZSOuYJJorGenmfTSrI-4" target="PxZSOuYJJorGenmfTSrI-6">
          <mxGeometry relative="1" as="geometry" />
        </mxCell>
        <mxCell id="PxZSOuYJJorGenmfTSrI-9" value="fail" style="edgeLabel;html=1;align=center;verticalAlign=middle;resizable=0;points=[];" vertex="1" connectable="0" parent="PxZSOuYJJorGenmfTSrI-7">
          <mxGeometry x="-0.6556" y="5" relative="1" as="geometry">
            <mxPoint as="offset" />
          </mxGeometry>
        </mxCell>
        <mxCell id="PxZSOuYJJorGenmfTSrI-4" value="Quality&amp;nbsp;&lt;div&gt;check&lt;/div&gt;" style="rhombus;whiteSpace=wrap;html=1;" vertex="1" parent="1">
          <mxGeometry x="120" y="240" width="80" height="80" as="geometry" />
        </mxCell>
        <mxCell id="PxZSOuYJJorGenmfTSrI-8" style="edgeStyle=orthogonalEdgeStyle;rounded=0;orthogonalLoop=1;jettySize=auto;html=1;entryX=1;entryY=0.25;entryDx=0;entryDy=0;" edge="1" parent="1" source="PxZSOuYJJorGenmfTSrI-6" target="PxZSOuYJJorGenmfTSrI-2">
          <mxGeometry relative="1" as="geometry">
            <Array as="points">
              <mxPoint x="300" y="145" />
            </Array>
          </mxGeometry>
        </mxCell>
        <mxCell id="PxZSOuYJJorGenmfTSrI-6" value="Repair" style="whiteSpace=wrap;html=1;" vertex="1" parent="1">
          <mxGeometry x="260" y="255" width="105" height="50" as="geometry" />
        </mxCell>
        <mxCell id="PxZSOuYJJorGenmfTSrI-12" value="" style="edgeStyle=orthogonalEdgeStyle;rounded=0;orthogonalLoop=1;jettySize=auto;html=1;" edge="1" parent="1" source="PxZSOuYJJorGenmfTSrI-10" target="PxZSOuYJJorGenmfTSrI-11">
          <mxGeometry relative="1" as="geometry" />
        </mxCell>
        <mxCell id="PxZSOuYJJorGenmfTSrI-10" value="pass" style="text;html=1;align=center;verticalAlign=middle;resizable=0;points=[];autosize=1;strokeColor=none;fillColor=none;" vertex="1" parent="1">
          <mxGeometry x="135" y="328" width="50" height="30" as="geometry" />
        </mxCell>
        <mxCell id="PxZSOuYJJorGenmfTSrI-16" value="" style="edgeStyle=orthogonalEdgeStyle;rounded=0;orthogonalLoop=1;jettySize=auto;html=1;" edge="1" parent="1" source="PxZSOuYJJorGenmfTSrI-11" target="PxZSOuYJJorGenmfTSrI-15">
          <mxGeometry relative="1" as="geometry" />
        </mxCell>
        <mxCell id="PxZSOuYJJorGenmfTSrI-11" value="Body Assembly" style="whiteSpace=wrap;html=1;" vertex="1" parent="1">
          <mxGeometry x="100" y="380" width="120" height="60" as="geometry" />
        </mxCell>
        <mxCell id="PxZSOuYJJorGenmfTSrI-20" value="" style="edgeStyle=orthogonalEdgeStyle;rounded=0;orthogonalLoop=1;jettySize=auto;html=1;exitX=0.5;exitY=1;exitDx=0;exitDy=0;exitPerimeter=0;" edge="1" parent="1" source="PxZSOuYJJorGenmfTSrI-15" target="PxZSOuYJJorGenmfTSrI-19">
          <mxGeometry relative="1" as="geometry" />
        </mxCell>
        <mxCell id="PxZSOuYJJorGenmfTSrI-23" value="Pass" style="edgeLabel;html=1;align=center;verticalAlign=middle;resizable=0;points=[];" vertex="1" connectable="0" parent="PxZSOuYJJorGenmfTSrI-20">
          <mxGeometry x="-0.5825" y="9" relative="1" as="geometry">
            <mxPoint y="1" as="offset" />
          </mxGeometry>
        </mxCell>
        <mxCell id="PxZSOuYJJorGenmfTSrI-15" value="Quality&amp;nbsp;&lt;div&gt;check&lt;/div&gt;" style="rhombus;whiteSpace=wrap;html=1;" vertex="1" parent="1">
          <mxGeometry x="120" y="490" width="80" height="80" as="geometry" />
        </mxCell>
        <mxCell id="PxZSOuYJJorGenmfTSrI-17" value="fail" style="text;html=1;align=center;verticalAlign=middle;resizable=0;points=[];autosize=1;strokeColor=none;fillColor=none;" vertex="1" parent="1">
          <mxGeometry x="195" y="515" width="40" height="30" as="geometry" />
        </mxCell>
        <mxCell id="PxZSOuYJJorGenmfTSrI-31" value="" style="edgeStyle=orthogonalEdgeStyle;rounded=0;orthogonalLoop=1;jettySize=auto;html=1;" edge="1" parent="1" source="PxZSOuYJJorGenmfTSrI-19" target="PxZSOuYJJorGenmfTSrI-30">
          <mxGeometry relative="1" as="geometry" />
        </mxCell>
        <mxCell id="PxZSOuYJJorGenmfTSrI-19" value="Paint&amp;nbsp;" style="whiteSpace=wrap;html=1;" vertex="1" parent="1">
          <mxGeometry x="120" y="630" width="80" height="40" as="geometry" />
        </mxCell>
        <mxCell id="PxZSOuYJJorGenmfTSrI-29" style="edgeStyle=orthogonalEdgeStyle;rounded=0;orthogonalLoop=1;jettySize=auto;html=1;entryX=0.424;entryY=1.145;entryDx=0;entryDy=0;entryPerimeter=0;" edge="1" parent="1" source="PxZSOuYJJorGenmfTSrI-17" target="PxZSOuYJJorGenmfTSrI-6">
          <mxGeometry relative="1" as="geometry">
            <Array as="points">
              <mxPoint x="215" y="530" />
              <mxPoint x="305" y="530" />
            </Array>
          </mxGeometry>
        </mxCell>
        <mxCell id="PxZSOuYJJorGenmfTSrI-36" value="" style="edgeStyle=orthogonalEdgeStyle;rounded=0;orthogonalLoop=1;jettySize=auto;html=1;" edge="1" parent="1" source="PxZSOuYJJorGenmfTSrI-30" target="PxZSOuYJJorGenmfTSrI-35">
          <mxGeometry relative="1" as="geometry" />
        </mxCell>
        <mxCell id="PxZSOuYJJorGenmfTSrI-48" value="Pass" style="edgeLabel;html=1;align=center;verticalAlign=middle;resizable=0;points=[];" vertex="1" connectable="0" parent="PxZSOuYJJorGenmfTSrI-36">
          <mxGeometry x="-0.7284" relative="1" as="geometry">
            <mxPoint y="1" as="offset" />
          </mxGeometry>
        </mxCell>
        <mxCell id="PxZSOuYJJorGenmfTSrI-54" style="edgeStyle=orthogonalEdgeStyle;rounded=0;orthogonalLoop=1;jettySize=auto;html=1;" edge="1" parent="1">
          <mxGeometry relative="1" as="geometry">
            <mxPoint x="305" y="530" as="targetPoint" />
            <mxPoint x="205" y="760" as="sourcePoint" />
          </mxGeometry>
        </mxCell>
        <mxCell id="PxZSOuYJJorGenmfTSrI-30" value="Quality&amp;nbsp;&lt;div&gt;check&lt;/div&gt;" style="rhombus;whiteSpace=wrap;html=1;" vertex="1" parent="1">
          <mxGeometry x="120" y="720" width="80" height="80" as="geometry" />
        </mxCell>
        <mxCell id="PxZSOuYJJorGenmfTSrI-32" value="Fail" style="text;html=1;align=center;verticalAlign=middle;resizable=0;points=[];autosize=1;strokeColor=none;fillColor=none;" vertex="1" parent="1">
          <mxGeometry x="200" y="730" width="40" height="30" as="geometry" />
        </mxCell>
        <mxCell id="PxZSOuYJJorGenmfTSrI-40" value="" style="edgeStyle=orthogonalEdgeStyle;rounded=0;orthogonalLoop=1;jettySize=auto;html=1;" edge="1" parent="1" source="PxZSOuYJJorGenmfTSrI-35" target="PxZSOuYJJorGenmfTSrI-39">
          <mxGeometry relative="1" as="geometry" />
        </mxCell>
        <mxCell id="PxZSOuYJJorGenmfTSrI-35" value="Engine Installation" style="whiteSpace=wrap;html=1;" vertex="1" parent="1">
          <mxGeometry x="100" y="860" width="120" height="60" as="geometry" />
        </mxCell>
        <mxCell id="PxZSOuYJJorGenmfTSrI-45" value="" style="edgeStyle=orthogonalEdgeStyle;rounded=0;orthogonalLoop=1;jettySize=auto;html=1;" edge="1" parent="1" source="PxZSOuYJJorGenmfTSrI-39" target="PxZSOuYJJorGenmfTSrI-44">
          <mxGeometry relative="1" as="geometry" />
        </mxCell>
        <mxCell id="PxZSOuYJJorGenmfTSrI-49" value="Pass" style="edgeLabel;html=1;align=center;verticalAlign=middle;resizable=0;points=[];" vertex="1" connectable="0" parent="PxZSOuYJJorGenmfTSrI-45">
          <mxGeometry x="-0.5432" relative="1" as="geometry">
            <mxPoint y="1" as="offset" />
          </mxGeometry>
        </mxCell>
        <mxCell id="PxZSOuYJJorGenmfTSrI-56" style="edgeStyle=orthogonalEdgeStyle;rounded=0;orthogonalLoop=1;jettySize=auto;html=1;" edge="1" parent="1" source="PxZSOuYJJorGenmfTSrI-39">
          <mxGeometry relative="1" as="geometry">
            <mxPoint x="310" y="752.9824347245066" as="targetPoint" />
          </mxGeometry>
        </mxCell>
        <mxCell id="PxZSOuYJJorGenmfTSrI-57" value="Fail" style="edgeLabel;html=1;align=center;verticalAlign=middle;resizable=0;points=[];" vertex="1" connectable="0" parent="PxZSOuYJJorGenmfTSrI-56">
          <mxGeometry x="-0.917" relative="1" as="geometry">
            <mxPoint as="offset" />
          </mxGeometry>
        </mxCell>
        <mxCell id="PxZSOuYJJorGenmfTSrI-39" value="Quality&amp;nbsp;&lt;div&gt;check&lt;/div&gt;" style="rhombus;whiteSpace=wrap;html=1;" vertex="1" parent="1">
          <mxGeometry x="120" y="980" width="80" height="80" as="geometry" />
        </mxCell>
        <mxCell id="PxZSOuYJJorGenmfTSrI-47" value="" style="edgeStyle=orthogonalEdgeStyle;rounded=0;orthogonalLoop=1;jettySize=auto;html=1;" edge="1" parent="1" source="PxZSOuYJJorGenmfTSrI-44" target="PxZSOuYJJorGenmfTSrI-46">
          <mxGeometry relative="1" as="geometry" />
        </mxCell>
        <mxCell id="PxZSOuYJJorGenmfTSrI-44" value="Interior Assembly" style="whiteSpace=wrap;html=1;" vertex="1" parent="1">
          <mxGeometry x="100" y="1110" width="120" height="60" as="geometry" />
        </mxCell>
        <mxCell id="PxZSOuYJJorGenmfTSrI-52" value="" style="edgeStyle=orthogonalEdgeStyle;rounded=0;orthogonalLoop=1;jettySize=auto;html=1;" edge="1" parent="1" source="PxZSOuYJJorGenmfTSrI-46" target="PxZSOuYJJorGenmfTSrI-51">
          <mxGeometry relative="1" as="geometry" />
        </mxCell>
        <mxCell id="PxZSOuYJJorGenmfTSrI-58" value="Pass" style="edgeLabel;html=1;align=center;verticalAlign=middle;resizable=0;points=[];" vertex="1" connectable="0" parent="PxZSOuYJJorGenmfTSrI-52">
          <mxGeometry x="-0.3333" y="2" relative="1" as="geometry">
            <mxPoint as="offset" />
          </mxGeometry>
        </mxCell>
        <mxCell id="PxZSOuYJJorGenmfTSrI-59" style="edgeStyle=orthogonalEdgeStyle;rounded=0;orthogonalLoop=1;jettySize=auto;html=1;" edge="1" parent="1" source="PxZSOuYJJorGenmfTSrI-46">
          <mxGeometry relative="1" as="geometry">
            <mxPoint x="310" y="1020" as="targetPoint" />
          </mxGeometry>
        </mxCell>
        <mxCell id="PxZSOuYJJorGenmfTSrI-60" value="Fail" style="edgeLabel;html=1;align=center;verticalAlign=middle;resizable=0;points=[];" vertex="1" connectable="0" parent="PxZSOuYJJorGenmfTSrI-59">
          <mxGeometry x="-0.9197" y="5" relative="1" as="geometry">
            <mxPoint as="offset" />
          </mxGeometry>
        </mxCell>
        <mxCell id="PxZSOuYJJorGenmfTSrI-46" value="Quality&amp;nbsp;&lt;div&gt;check&lt;/div&gt;" style="rhombus;whiteSpace=wrap;html=1;" vertex="1" parent="1">
          <mxGeometry x="120" y="1210" width="80" height="80" as="geometry" />
        </mxCell>
        <mxCell id="PxZSOuYJJorGenmfTSrI-63" value="" style="edgeStyle=orthogonalEdgeStyle;rounded=0;orthogonalLoop=1;jettySize=auto;html=1;" edge="1" parent="1" source="PxZSOuYJJorGenmfTSrI-51" target="PxZSOuYJJorGenmfTSrI-62">
          <mxGeometry relative="1" as="geometry" />
        </mxCell>
        <mxCell id="PxZSOuYJJorGenmfTSrI-51" value="Final Assembly" style="whiteSpace=wrap;html=1;" vertex="1" parent="1">
          <mxGeometry x="100" y="1340" width="120" height="60" as="geometry" />
        </mxCell>
        <mxCell id="PxZSOuYJJorGenmfTSrI-64" style="edgeStyle=orthogonalEdgeStyle;rounded=0;orthogonalLoop=1;jettySize=auto;html=1;" edge="1" parent="1" source="PxZSOuYJJorGenmfTSrI-62">
          <mxGeometry relative="1" as="geometry">
            <mxPoint x="310" y="1250" as="targetPoint" />
          </mxGeometry>
        </mxCell>
        <mxCell id="PxZSOuYJJorGenmfTSrI-65" value="Fail" style="edgeLabel;html=1;align=center;verticalAlign=middle;resizable=0;points=[];" vertex="1" connectable="0" parent="PxZSOuYJJorGenmfTSrI-64">
          <mxGeometry x="-0.854" relative="1" as="geometry">
            <mxPoint as="offset" />
          </mxGeometry>
        </mxCell>
        <mxCell id="PxZSOuYJJorGenmfTSrI-67" value="" style="edgeStyle=orthogonalEdgeStyle;rounded=0;orthogonalLoop=1;jettySize=auto;html=1;" edge="1" parent="1" source="PxZSOuYJJorGenmfTSrI-62" target="PxZSOuYJJorGenmfTSrI-66">
          <mxGeometry relative="1" as="geometry" />
        </mxCell>
        <mxCell id="PxZSOuYJJorGenmfTSrI-68" value="Pass" style="edgeLabel;html=1;align=center;verticalAlign=middle;resizable=0;points=[];" vertex="1" connectable="0" parent="PxZSOuYJJorGenmfTSrI-67">
          <mxGeometry x="-0.3457" y="2" relative="1" as="geometry">
            <mxPoint as="offset" />
          </mxGeometry>
        </mxCell>
        <mxCell id="PxZSOuYJJorGenmfTSrI-62" value="Quality&amp;nbsp;&lt;div&gt;check&lt;/div&gt;" style="rhombus;whiteSpace=wrap;html=1;" vertex="1" parent="1">
          <mxGeometry x="120" y="1440" width="80" height="80" as="geometry" />
        </mxCell>
        <mxCell id="PxZSOuYJJorGenmfTSrI-70" value="" style="edgeStyle=orthogonalEdgeStyle;rounded=0;orthogonalLoop=1;jettySize=auto;html=1;" edge="1" parent="1" source="PxZSOuYJJorGenmfTSrI-66" target="PxZSOuYJJorGenmfTSrI-69">
          <mxGeometry relative="1" as="geometry" />
        </mxCell>
        <mxCell id="PxZSOuYJJorGenmfTSrI-66" value="Testing" style="whiteSpace=wrap;html=1;" vertex="1" parent="1">
          <mxGeometry x="100" y="1560" width="120" height="60" as="geometry" />
        </mxCell>
        <mxCell id="PxZSOuYJJorGenmfTSrI-71" style="edgeStyle=orthogonalEdgeStyle;rounded=0;orthogonalLoop=1;jettySize=auto;html=1;" edge="1" parent="1" source="PxZSOuYJJorGenmfTSrI-69">
          <mxGeometry relative="1" as="geometry">
            <mxPoint x="310" y="1475.3622834578805" as="targetPoint" />
          </mxGeometry>
        </mxCell>
        <mxCell id="PxZSOuYJJorGenmfTSrI-72" value="Fail" style="edgeLabel;html=1;align=center;verticalAlign=middle;resizable=0;points=[];" vertex="1" connectable="0" parent="PxZSOuYJJorGenmfTSrI-71">
          <mxGeometry x="-0.9063" relative="1" as="geometry">
            <mxPoint as="offset" />
          </mxGeometry>
        </mxCell>
        <mxCell id="PxZSOuYJJorGenmfTSrI-74" value="" style="edgeStyle=orthogonalEdgeStyle;rounded=0;orthogonalLoop=1;jettySize=auto;html=1;" edge="1" parent="1" source="PxZSOuYJJorGenmfTSrI-69" target="PxZSOuYJJorGenmfTSrI-73">
          <mxGeometry relative="1" as="geometry" />
        </mxCell>
        <mxCell id="PxZSOuYJJorGenmfTSrI-77" value="Pass" style="edgeLabel;html=1;align=center;verticalAlign=middle;resizable=0;points=[];" vertex="1" connectable="0" parent="PxZSOuYJJorGenmfTSrI-74">
          <mxGeometry x="-0.1645" y="3" relative="1" as="geometry">
            <mxPoint as="offset" />
          </mxGeometry>
        </mxCell>
        <mxCell id="PxZSOuYJJorGenmfTSrI-69" value="Quality&amp;nbsp;&lt;div&gt;check&lt;/div&gt;" style="rhombus;whiteSpace=wrap;html=1;" vertex="1" parent="1">
          <mxGeometry x="120" y="1670" width="80" height="80" as="geometry" />
        </mxCell>
        <mxCell id="PxZSOuYJJorGenmfTSrI-76" value="" style="edgeStyle=orthogonalEdgeStyle;rounded=0;orthogonalLoop=1;jettySize=auto;html=1;" edge="1" parent="1" source="PxZSOuYJJorGenmfTSrI-73" target="PxZSOuYJJorGenmfTSrI-75">
          <mxGeometry relative="1" as="geometry" />
        </mxCell>
        <mxCell id="PxZSOuYJJorGenmfTSrI-73" value="Shipment" style="whiteSpace=wrap;html=1;" vertex="1" parent="1">
          <mxGeometry x="100" y="1790" width="120" height="60" as="geometry" />
        </mxCell>
        <mxCell id="PxZSOuYJJorGenmfTSrI-75" value="End" style="ellipse;whiteSpace=wrap;html=1;" vertex="1" parent="1">
          <mxGeometry x="110" y="1900" width="100" height="40" as="geometry" />
        </mxCell>
      </root>
    </mxGraphModel>
  </diagram>
</mxfile>
